<svg width="701" height="169" viewBox="0 0 701 169" fill="none" xmlns="http://www.w3.org/2000/svg">
<path fill-rule="evenodd" clip-rule="evenodd" d="M165.034 130.9V107.772H155.533C150.144 107.772 146.911 104.725 146.911 99.5228V0H122.296V100.957C122.296 120.142 133.436 130.9 152.839 130.9H165.034ZM643.852 101.674L622.831 104.901C625.346 121.755 641.336 133.05 662.535 133.05C685.17 133.05 700.443 121.219 700.443 103.646C700.443 90.5594 691.461 81.7709 674.575 78.5459L658.762 75.3191C652.655 74.2412 649.958 71.5516 649.958 67.6068C649.958 62.4085 654.632 59.0009 661.995 59.0009C669.901 59.0009 675.831 63.3039 677.089 69.5801L697.748 63.3039C693.615 49.3171 679.604 39.814 662.535 39.814C640.256 39.9966 625.167 51.4729 625.167 68.5039C625.167 82.3117 634.87 91.2775 653.013 95.0415L668.823 98.0857C673.855 99.1636 675.65 101.312 675.65 104.901C675.65 110.28 670.26 113.868 661.995 113.868C651.756 113.868 644.392 109.025 643.852 101.674ZM596.179 41.9698L593.126 55.0577H592.406C589.713 45.9146 579.112 39.8157 565.819 39.8157C541.923 39.8157 525.755 57.3892 525.755 83.9232C525.755 110.461 541.923 128.031 565.819 128.031C578.933 128.031 589.535 121.935 592.406 112.971H593.126V121.754C593.126 136.996 583.424 147.037 569.232 147.037C558.992 147.037 549.651 140.762 546.055 131.437L525.755 142.555C533.479 158.153 551.088 168.374 569.772 168.374C598.517 168.374 617.741 150.265 617.741 122.653V41.9698H596.179ZM571.747 106.872C558.992 106.872 550.37 97.7284 550.37 83.9224C550.37 70.1182 558.992 60.7925 571.747 60.7925C584.504 60.7925 593.125 70.1182 593.125 83.9224C593.125 97.7284 584.504 106.872 571.747 106.872ZM459.97 55.9548C463.027 46.2692 473.802 39.8157 487.099 39.8157C506.5 39.8157 519.255 53.2618 519.255 73.5248V130.901H494.644V81.9516C494.644 70.4771 487.637 62.7648 477.577 62.7648C466.618 62.7648 459.432 71.0143 459.432 83.0278V130.901H434.82V41.9698H456.198L459.432 55.9548H459.97ZM354.807 39.8157C341.872 39.8157 331.275 46.2692 328.399 55.7723H327.861L324.624 41.9698H303.247V166.403H327.861V117.272H328.399C331.275 126.598 341.872 133.05 354.807 133.05C379.244 133.05 395.412 114.406 395.412 86.4337C395.412 58.4653 379.244 39.8157 354.807 39.8157ZM349.057 110.639C336.306 110.639 327.86 100.957 327.86 86.4333C327.86 71.911 336.306 62.0481 349.057 62.0481C361.813 62.0481 370.258 71.911 370.258 86.4333C370.258 100.957 361.813 110.639 349.057 110.639ZM229.388 55.7723C232.26 46.2692 242.861 39.8157 255.796 39.8157C280.23 39.8157 296.398 58.4653 296.398 86.4337C296.398 114.406 280.23 133.05 255.796 133.05C242.861 133.05 232.26 126.598 229.388 117.272H228.85V166.403H204.234V41.9698H225.615L228.85 55.7723H229.388ZM228.849 86.4333C228.849 100.957 237.291 110.639 250.046 110.639C262.803 110.639 271.247 100.957 271.247 86.4333C271.247 71.911 262.803 62.0481 250.046 62.0481C237.291 62.0481 228.849 71.911 228.849 86.4333ZM196.396 130.9H171.785V41.9689H196.396V130.9ZM402.367 130.9H426.979V41.9689H402.367V130.9ZM414.561 29.0165C422 29.0165 428.031 22.9858 428.031 15.5466C428.031 8.10739 422 2.07672 414.561 2.07672C407.122 2.07672 401.091 8.10739 401.091 15.5466C401.091 22.9858 407.122 29.0165 414.561 29.0165ZM60.0667 132.462C89.4597 132.462 110.043 116.004 115.239 91.1392L91.4035 82.5579C87.8185 97.2259 76.912 107.059 60.7827 107.059C39.2776 107.059 28.5646 91.1392 28.5646 67.1736C28.5646 43.2063 39.2776 27.2848 60.7827 27.2848C76.912 27.2848 87.8185 37.1267 91.4035 51.9702L115.239 43.2063C110.043 18.3454 89.4597 1.8902 60.0667 1.8902C22.2512 1.8902 0.782959 28.0029 0.782959 67.1736C0.782959 106.346 22.2512 132.462 60.0667 132.462ZM184.31 29.0165C191.749 29.0165 197.78 22.9858 197.78 15.5466C197.78 8.10739 191.749 2.07672 184.31 2.07672C176.871 2.07672 170.84 8.10739 170.84 15.5466C170.84 22.9858 176.871 29.0165 184.31 29.0165Z" fill="#E5E9F0"/>
</svg>
