<?xml version="1.0" encoding="UTF-8" standalone="no"?>
<svg
   height="226"
   width="190"
   viewBox="-18.537885 -7.5445 25.438098 12.787928"
   version="1.1"
   id="svg6"
   xmlns="http://www.w3.org/2000/svg"
   xmlns:svg="http://www.w3.org/2000/svg">
  <defs
     id="defs6" />
  <path
     d="m -11.271975,12.91314 0.523,-3.3219997 -1.165,-0.027 h -5.563 l 3.866,-24.5130003 a 0.316,0.316 0 0 1 0.314,-0.268 h 9.3799996 c 3.11399994,0 5.263,0.648 6.385,1.927 0.526,0.6 0.861,1.227 1.023,1.917 0.17,0.724 0.173,1.5890003 0.007,2.6440003 l -0.012,0.077 v 0.676 l 0.526,0.298 a 3.69,3.69 0 0 1 1.065,0.812 c 0.45,0.513 0.741,1.165 0.864,1.938 0.127,0.795 0.085,1.741 -0.123,2.812 -0.24,1.23199999 -0.628,2.30499999 -1.152,3.183 a 6.547,6.547 0 0 1 -1.825,2 c -0.696,0.494 -1.523,0.869 -2.45800003,1.109 -0.90600003,0.236 -1.93900007,0.355 -3.07199997,0.355 h -0.73 c -0.522,0 -1.029,0.188 -1.427,0.525 a 2.21,2.21 0 0 0 -0.744,1.328 l -0.055,0.299 -0.924,5.8549997 -0.042,0.215 c -0.011,0.068 -0.03,0.102 -0.058,0.125 a 0.155,0.155 0 0 1 -0.096,0.035 z"
     fill="#253b80"
     id="path3" />
  <path
     d="m 4.5100246,-8.5738597 c -0.028,0.179 -0.06,0.362 -0.096,0.55 -1.237,6.351 -5.4690001,8.54499999 -10.874,8.54499999 h -2.752 c -0.661,0 -1.2179996,0.48000001 -1.3209996,1.13200001 l -1.409,8.9359997 -0.399,2.533 a 0.704,0.704 0 0 0 0.695,0.814 h 4.8809996 c 0.578,0 1.069,-0.42 1.16,-0.99 l 0.048,-0.248 0.919,-5.8319997 0.059,-0.32 c 0.09,-0.572 0.582,-0.992 1.16,-0.992 h 0.73 c 4.729,0 8.431,-1.92 9.513,-7.476 0.452,-2.321 0.218,-4.259 -0.978,-5.622 a 4.667,4.667 0 0 0 -1.336,-1.03 z"
     fill="#179bd7"
     id="path4" />
  <path
     d="m 3.2160246,-9.0898597 a 9.757,9.757 0 0 0 -1.203,-0.267 15.284,15.284 0 0 0 -2.42600006,-0.177 H -7.7649754 a 1.172,1.172 0 0 0 -1.159,0.992 l -1.5639996,9.906 -0.045,0.289 a 1.336,1.336 0 0 1 1.3209996,-1.13200001 h 2.752 c 5.4049999,0 9.637,-2.19499999 10.874,-8.54499999 0.037,-0.188 0.068,-0.371 0.096,-0.55 a 6.594,6.594 0 0 0 -1.017,-0.429 9.045,9.045 0 0 0 -0.277,-0.087 z"
     fill="#222d65"
     id="path5" />
  <path
     d="m -8.9239754,-8.5418597 a 1.169,1.169 0 0 1 1.159,-0.991 h 7.35199994 c 0.87100003,0 1.68400006,0.057 2.42600006,0.177 a 9.757,9.757 0 0 1 1.481,0.353 c 0.365,0.121 0.704,0.264 1.017,0.429 0.368,-2.3470003 -0.003,-3.9450003 -1.272,-5.3920003 -1.399,-1.593 -3.92400006,-2.275 -7.155,-2.275 h -9.3799996 c -0.66,0 -1.223,0.48 -1.325,1.133 l -3.907,24.7650003 a 0.806,0.806 0 0 0 0.795,0.9319997 h 5.791 l 1.454,-9.2249997 z"
     fill="#253b80"
     id="path6" />
</svg>
