<?xml version="1.0" encoding="UTF-8" standalone="no"?>
<svg
   version="1.1"
   viewBox="0 0 177.78717 216.58289"
   id="svg5"
   width="177.78717"
   height="216.58289"
   xmlns="http://www.w3.org/2000/svg"
   xmlns:svg="http://www.w3.org/2000/svg">
  <defs
     id="defs5" />
  <path
     fill="#77bf43"
     d="M 0,119.3402 V 97.040203 q 1.16,-6.93 2.41,-13.75 4.41,-24.12 17.73,-43.82 10.21,-15.11 24.36,-25.11 21.61,-15.2900003 49.23,-14.3000003 21.12,0.75 38.37,8.88 C 166.16,24.990203 179.12,60.460203 177.68,96.350203 176.66,122.0702 162.39,144.4402 142.76,161.6902 q -7.02,6.17 -14.91,9.46 c -14.21,5.93 -33.9,2.11 -42.94,-11.33 -10.43,-15.52 -1.65,-33.47 14.71,-39.44 9.62,-3.52 20.39,-9.01 23.13,-19.11 4.24,-15.659997 -3.02,-31.239997 -18.28,-36.429997 -12.92,-4.4 -26.35,1.04 -33.43,12.69 q -4.87,8 -6.87,17.81 C 58.22,124.4502 65.05,160.6002 89.19,180.4702 q 18.38,15.13 41.25,10.74 c 3.57,-0.69 7.03,0.98 7,5.03 -0.02,2.35 -1.86,4.44 -3.71,5.77 q -10.97,7.95 -24.28,11.7 c -36.27,10.21 -70.48,-7.79 -90.36,-38.25 q -12.37,-18.95 -16.63,-42.01 -1.29,-7 -2.46,-14.11 z"
     id="path1" />
  <ellipse
     fill="#77bf43"
     cx="47.284023"
     cy="240.15648"
     transform="rotate(-29.7)"
     rx="9.6899996"
     ry="7.8299999"
     id="ellipse5" />
</svg>
