<?xml version="1.0" encoding="UTF-8" standalone="no"?>
<svg
   xml:space="preserve"
   x="0"
   y="0"
   version="1.1"
   viewBox="0 0 3168 2071"
   id="svg8"
   width="3168"
   height="2071"
   xmlns="http://www.w3.org/2000/svg"
   xmlns:svg="http://www.w3.org/2000/svg"><defs
   id="defs8" />
  <path
   fill="#E5E9F0"
   d="m 3021,330 97,-250 -4,-16 -956,252 c 102,-148 67,-266 67,-266 0,0 -305,195 -536,190 -231,-5 -305,-67 -659,46 C 676,399 576,745 473,820 371,894 50,1141 50,1141 l 290,-93 c 0,0 -82,78 -251.000004,305 v 1 C 116,1392 235,1549 353,1515 c 13,-4 28,-11 45,-19 53,30 124,59 201,67 0,0 -52,-60 -96,-130 l 36,-23 -6,4 111,40 -12,-104 h 1 l 108,40 -13,-95 41,-20 113,-428 468,-320 -37,94 c -95,233 -273,288 -273,288 l -74,29 c -56,65 -79,81 -98,301 45,-12 87,-14 125.99999,-4 C 1194,1289 1263,1530 1209,1597 c -13,16 -45,45 -86,78 h -81 l -1,66 -8,7 h -83 l -1,64 -22,16 c -77,2 -176,-66 -176,-66 1,62 52,157 52,157 l 9,-5 -8,6 c 0,0 208,138 339,87 116,-46 417,-283 677,-395 l 786,-208 104,-268 -599,158 V 1052 L 2814,867 2918,598 2111,811 V 570 Z m -1427,511 187,-49 2,9 -58,151 -193,51 z m 64,323 -193,51 63,-162 186,-49 3,9 z m 252,-54 -193,51 63,-162 186,-49 3,9 z"
   id="path1" />
  
</svg>
