<?xml version="1.0" encoding="UTF-8" standalone="no"?>
<svg
   width="287.55661"
   height="270.49091"
   viewBox="0 0 163.6098 153.9"
   fill="none"
   version="1.1"
   id="svg6"
   xmlns="http://www.w3.org/2000/svg"
   xmlns:svg="http://www.w3.org/2000/svg">
  <g
     clip-path="url(#clip0_301_2)"
     id="g4"
     transform="translate(-1.3902,-10.4431)">
    <g
       filter="url(#filter0_d_301_2)"
       id="g3">
      <path
         d="M 120.831,57.2543 84.693,109.505 c -0.3831,0.554 -0.9372,0.969 -1.5782,1.182 -0.641,0.213 -1.3339,0.211 -1.9736,-0.003 -0.6397,-0.215 -1.1912,-0.632 -1.571,-1.187 -0.3797,-0.556 -0.567,-1.22 -0.5332,-1.891 l 1.4463,-28.8478 -23.349,-4.9518 c -0.499,-0.1057 -0.9639,-0.3324 -1.3536,-0.6599 -0.3897,-0.3274 -0.6922,-0.7456 -0.8806,-1.2175 -0.1884,-0.4719 -0.2569,-0.9829 -0.1995,-1.4878 0.0574,-0.5048 0.2389,-0.988 0.5285,-1.4067 L 91.3675,16.7837 c 0.3832,-0.5543 0.9373,-0.9692 1.5783,-1.1819 0.6411,-0.2127 1.334,-0.2116 1.9738,0.0033 0.6397,0.2148 1.1913,0.6316 1.571,1.1872 0.3797,0.5555 0.5669,1.2194 0.533,1.891 l -1.4463,28.8481 23.3487,4.9513 c 0.499,0.1058 0.964,0.3325 1.354,0.6599 0.39,0.3275 0.692,0.7457 0.88,1.2176 0.189,0.4719 0.257,0.9829 0.2,1.4877 -0.057,0.5049 -0.239,0.9881 -0.529,1.4068 z"
         fill="#fcc72b"
         id="path1" />
      <path
         d="m 82.9866,153.343 c -0.9612,0.001 -1.9131,-0.187 -2.8011,-0.555 -0.888,-0.368 -1.6946,-0.908 -2.3733,-1.588 L 43.6658,117.056 c -1.366,-1.373 -2.1317,-3.232 -2.1292,-5.169 0.0026,-1.937 0.7732,-3.795 2.143,-5.164 1.3697,-1.37 3.2268,-2.141 5.1639,-2.144 1.9372,-0.002 3.7964,0.763 5.1699,2.129 l 28.9732,28.97 63.1184,-63.1154 c 1.376,-1.3538 3.231,-2.109 5.161,-2.1011 1.931,0.0078 3.78,0.7781 5.144,2.143 1.365,1.365 2.136,3.2139 2.144,5.1442 0.007,1.9303 -0.748,3.7855 -2.102,5.1614 L 88.1597,151.2 c -0.6786,0.681 -1.485,1.22 -2.3728,1.588 -0.8877,0.368 -1.8394,0.556 -2.8003,0.555 z"
         fill="#729b1b"
         id="path2" />
      <path
         d="m 82.9572,153.343 c 0.9612,0.001 1.9131,-0.187 2.8011,-0.555 0.888,-0.368 1.6945,-0.908 2.3733,-1.588 l 34.1464,-34.144 c 1.366,-1.373 2.132,-3.232 2.129,-5.169 -0.002,-1.937 -0.773,-3.795 -2.143,-5.164 -1.37,-1.37 -3.227,-2.141 -5.164,-2.144 -1.937,-0.002 -3.796,0.763 -5.17,2.129 L 82.9572,135.678 19.8389,72.5626 c -1.376,-1.3538 -3.2312,-2.109 -5.1614,-2.1011 -1.9303,0.0078 -3.7793,0.7781 -5.14419,2.143 -1.36492,1.365 -2.1352,3.2139 -2.14306,5.1442 -0.00786,1.9303 0.74734,3.7855 2.1011,5.1614 L 77.784,151.2 c 0.6787,0.681 1.4851,1.22 2.3728,1.588 0.8878,0.368 1.8395,0.556 2.8004,0.555 z"
         fill="#729b1b"
         fill-opacity="0.5"
         id="path3" />
    </g>
  </g>
  <defs
     id="defs6">
    <filter
       id="filter0_d_301_2"
       x="1.3902"
       y="10.4431"
       width="167.16299"
       height="153.89999"
       filterUnits="userSpaceOnUse"
       color-interpolation-filters="sRGB">
      <feBlend
         mode="normal"
         in="SourceGraphic"
         in2="effect1_dropShadow_301_2"
         result="shape"
         id="feBlend6" />
    </filter>
    <clipPath
       id="clip0_301_2">
      <rect
         width="165"
         height="165"
         fill="#ffffff"
         id="rect6"
         x="0"
         y="0" />
    </clipPath>
  </defs>
</svg>
